<svg width="106" height="106" viewBox="0 0 106 106" fill="none" xmlns="http://www.w3.org/2000/svg">
<path d="M39.7891 14.8088L40.7533 14.4753L41.0493 13.4989L44.5353 2H61.4647L64.9507 13.4989L65.2467 14.4753L66.2109 14.8088C67.7376 15.3369 69.2228 15.9539 70.6603 16.6537L71.5785 17.1007L72.4789 16.6192L83.077 10.9521L95.0481 22.923L89.3808 33.5211L88.8993 34.4215L89.3462 35.3396C90.0461 36.7773 90.6631 38.2624 91.1912 39.789L91.5247 40.7533L92.5011 41.0493L104 44.5353V61.4647L92.5011 64.9507L91.5247 65.2467L91.1912 66.2109C90.6631 67.7376 90.0461 69.2229 89.3463 70.6604L88.8993 71.5785L89.3808 72.4789L95.0481 83.077L83.077 95.048L72.4789 89.3808L71.5785 88.8993L70.6604 89.3463C69.2229 90.0461 67.7376 90.6631 66.2109 91.1912L65.2467 91.5247L64.9507 92.5011L61.4647 104H44.5353L41.0493 92.5011L40.7533 91.5247L39.7891 91.1912C38.2624 90.6631 36.7772 90.0461 35.3396 89.3463L34.4215 88.8993L33.5211 89.3808L22.923 95.048L10.9521 83.077L16.6192 72.4789L17.1007 71.5785L16.6537 70.6604C15.9539 69.2229 15.3369 67.7376 14.8088 66.2109L14.4753 65.2467L13.4989 64.9507L2 61.4647V44.5353L13.4989 41.0493L14.4753 40.7533L14.8088 39.789C15.3369 38.2624 15.9539 36.7773 16.6538 35.3396L17.1007 34.4215L16.6192 33.5211L10.9521 22.923L22.923 10.9521L33.5211 16.6192L34.4215 17.1007L35.3396 16.6537C36.7773 15.9539 38.2624 15.3369 39.7891 14.8088ZM53 58.8545C56.2334 58.8545 58.8545 56.2334 58.8545 53C58.8545 49.7666 56.2334 47.1455 53 47.1455C49.7666 47.1455 47.1455 49.7666 47.1455 53C47.1455 56.2334 49.7666 58.8545 53 58.8545Z" fill="#C4C4C4" stroke="black" stroke-width="4"/>
</svg>
