<svg width="180" height="70" viewBox="0 0 72 30" fill="none" xmlns="http://www.w3.org/2000/svg">
<path d="M33.3967 2.22095L33.5718 2.16313L34.2589 0H37.3346L38.0216 2.16313L38.1968 2.22095C38.4742 2.31252 38.744 2.41951 39.0052 2.54085L39.172 2.61835L41.2609 1.55223L43.4358 3.6279L42.3187 5.62166L42.3999 5.78085C42.527 6.03014 42.6391 6.28764 42.7351 6.55234L42.7957 6.71955L45.0621 7.37532V10.3108L42.7957 10.9665L42.7351 11.1337C42.6391 11.3984 42.527 11.656 42.3999 11.9052L42.3187 12.0644L43.4358 14.0582L41.2609 16.1339L39.172 15.0677L39.0052 15.1452C38.744 15.2666 38.4742 15.3736 38.1968 15.4651L38.0216 15.5229L37.3346 17.6861H34.2589L33.5718 15.5229L33.3967 15.4651C33.1193 15.3736 32.8495 15.2666 32.5883 15.1452L32.4215 15.0677L30.3325 16.1339L28.1577 14.0582L29.2748 12.0644L29.1936 11.9052C29.0664 11.656 28.9543 11.3984 28.8584 11.1337L28.7978 10.9665L26.5314 10.3108V7.37532L28.7978 6.71955L28.8584 6.55234C28.9543 6.28764 29.0664 6.03014 29.1936 5.78085L29.2748 5.62166L28.1577 3.6279L30.3325 1.55223L32.4215 2.61835L32.5883 2.54085C32.8495 2.41951 33.1193 2.31252 33.3967 2.22095ZM35.7967 9.85817C36.3842 9.85817 36.8603 9.40369 36.8603 8.84304C36.8603 8.28239 36.3842 7.82791 35.7967 7.82791C35.2093 7.82791 34.7331 8.28239 34.7331 8.84304C34.7331 9.40369 35.2093 9.85817 35.7967 9.85817Z" fill="white"/>
<path d="M2.10787 26.6883L2.20516 29.8452H0L0.113501 26.874L0 19.8791H2.23759L2.10787 26.6883Z" fill="white"/>
<path d="M9.04864 25.3574C9.05945 24.9963 8.97298 24.7178 8.78921 24.5217C8.61626 24.3154 8.36223 24.2122 8.02714 24.2122C7.54071 24.2122 7.02184 24.434 6.47055 24.8777V26.6728L6.56784 29.8452H4.41133L4.52483 26.874L4.44376 22.7885L6.48677 22.6183V23.6706H6.60027C7.1948 23.1548 7.84337 22.7833 8.546 22.5564C9.36753 22.5564 9.99448 22.7369 10.4269 23.098C10.8593 23.4488 11.0646 23.9595 11.043 24.6301L10.9944 26.6883L11.0917 29.8452H8.91893L9.04864 25.3574Z" fill="white"/>
<path d="M19.2847 26.6728L19.3334 27.9727C19.3334 28.1481 19.355 28.2719 19.3982 28.3441C19.4523 28.406 19.5442 28.437 19.6739 28.437C19.7928 28.437 19.9387 28.4164 20.1117 28.3751L20.2576 28.4989L20.0792 29.5822C19.7117 29.7988 19.3118 29.9278 18.8794 29.9691C18.5443 29.9381 18.2632 29.8298 18.0362 29.6441C17.8092 29.4584 17.6525 29.2056 17.566 28.8858H17.4363C16.9066 29.35 16.3661 29.706 15.8149 29.9536C14.7555 29.9536 13.934 29.6338 13.3503 28.9941C12.7666 28.3441 12.4747 27.4466 12.4747 26.3014C12.4747 25.084 12.8098 24.1503 13.48 23.5004C14.1502 22.8504 15.0798 22.5254 16.2689 22.5254C16.5823 22.5254 16.9282 22.5564 17.3066 22.6183L17.2742 19.1363L19.4145 18.9816L19.2847 26.6728ZM16.1229 23.9182C15.042 23.9182 14.5015 24.5733 14.5015 25.8836C14.5015 26.6986 14.6312 27.3125 14.8906 27.7251C15.1501 28.1378 15.5284 28.3441 16.0256 28.3441C16.5013 28.3441 16.9391 28.1326 17.339 27.7097L17.3714 26.8585L17.3228 24.1968C16.9012 24.0111 16.5013 23.9182 16.1229 23.9182Z" fill="white"/>
<path d="M28.7275 28.4989L28.5329 29.5822C28.1329 29.8298 27.7222 29.9587 27.3006 29.9691C26.9871 29.9175 26.7277 29.7988 26.5223 29.6131C26.3169 29.4274 26.1602 29.1592 26.0521 28.8084H25.9062C25.29 29.3861 24.6522 29.7627 23.9929 29.9381C23.1713 29.9381 22.5444 29.7627 22.112 29.4119C21.6904 29.0508 21.485 28.535 21.4958 27.8644L21.5283 26.0383L21.4472 22.7885L23.5389 22.6183L23.4902 27.1835C23.4794 27.5446 23.5551 27.818 23.7172 28.0037C23.8794 28.1894 24.1226 28.2822 24.4469 28.2822C24.9225 28.2822 25.3927 28.0811 25.8575 27.6787V22.7885L27.9167 22.6183L27.7708 27.9727C27.7708 28.1378 27.7978 28.2565 27.8519 28.3287C27.9167 28.4009 28.014 28.437 28.1437 28.437C28.2627 28.437 28.4086 28.4164 28.5815 28.3751L28.7275 28.4989Z" fill="white"/>
<path d="M32.5291 22.5254C33.2642 22.5254 33.956 22.6441 34.6045 22.8814L34.3127 24.3979L34.0533 24.4753C33.7398 24.2793 33.4263 24.1297 33.1128 24.0265C32.7993 23.9234 32.5237 23.8718 32.2859 23.8718C32.0265 23.8718 31.8211 23.9388 31.6697 24.073C31.5184 24.1968 31.4427 24.3515 31.4427 24.5372C31.4427 24.7539 31.54 24.9293 31.7346 25.0634C31.94 25.1975 32.2589 25.3471 32.6912 25.5122C33.1236 25.6772 33.4804 25.8371 33.7614 25.9919C34.0424 26.1466 34.2803 26.3633 34.4748 26.6419C34.6802 26.9101 34.7829 27.2454 34.7829 27.6478C34.7829 28.0604 34.6694 28.4473 34.4424 28.8084C34.2262 29.1592 33.8911 29.448 33.4371 29.675C32.9831 29.8917 32.4264 30 31.767 30C30.9887 30 30.1834 29.8452 29.3511 29.5357L29.5943 27.9263L29.8051 27.8025C30.1402 28.0707 30.5131 28.2874 30.9239 28.4525C31.3346 28.6072 31.6968 28.6846 32.0102 28.6846C32.3021 28.6846 32.5291 28.6175 32.6912 28.4834C32.8534 28.339 32.9345 28.1688 32.9345 27.9727C32.9345 27.7561 32.8318 27.5807 32.6264 27.4466C32.4318 27.3125 32.1183 27.1629 31.686 26.9978C31.2428 26.8121 30.8806 26.647 30.5996 26.5026C30.3185 26.3478 30.0753 26.1312 29.8699 25.8526C29.6754 25.5741 29.5781 25.2284 29.5781 24.8158C29.5781 24.1452 29.8429 23.5984 30.3726 23.1754C30.9023 22.7421 31.6211 22.5254 32.5291 22.5254Z" fill="white"/>
<path d="M39.2709 28.3287C39.6168 28.3287 39.9789 28.241 40.3572 28.0656L40.5356 28.2203L40.3248 29.4429C39.7735 29.7111 39.2114 29.8762 38.6385 29.9381C37.1792 29.7937 36.4496 29.1128 36.4496 27.8954L36.5306 26.6109L36.5144 23.9492H35.5091L35.4281 23.8408L35.5416 22.7111H36.4982V21.5195L38.4602 20.916L38.6061 21.0398L38.5574 22.7111H40.4869L40.5518 22.8195L40.4545 23.9492H38.525L38.4277 27.4156C38.4277 27.7458 38.4926 27.9831 38.6223 28.1275C38.752 28.2616 38.9682 28.3287 39.2709 28.3287Z" fill="white"/>
<path d="M45.8684 22.6338C45.9656 22.6338 46.1008 22.6441 46.2737 22.6647V24.5682L46.0467 24.6455C45.863 24.5733 45.663 24.5372 45.4468 24.5372C44.8198 24.5372 44.2523 24.9241 43.7443 25.6979V26.6728L43.8578 29.8452H41.7013L41.831 26.874L41.7337 22.7885L43.7767 22.6183L43.7605 24.0265H43.8902C44.4199 23.098 45.0793 22.6338 45.8684 22.6338Z" fill="white"/>
<path d="M47.4842 26.874L47.4031 22.7885L49.5272 22.6183L49.4299 26.6728L49.5272 29.8452H47.3707L47.4842 26.874ZM48.5057 19.1209C48.8408 19.1209 49.1003 19.2137 49.284 19.3994C49.4786 19.5851 49.5759 19.843 49.5759 20.1732C49.5759 20.524 49.4732 20.8025 49.2678 21.0088C49.0624 21.2152 48.7814 21.3183 48.4247 21.3183C48.0679 21.3183 47.7923 21.2255 47.5977 21.0398C47.414 20.8541 47.3221 20.591 47.3221 20.2506C47.3221 19.9101 47.4248 19.6367 47.6301 19.4304C47.8463 19.224 48.1382 19.1209 48.5057 19.1209Z" fill="white"/>
<path d="M54.5333 22.51C55.3656 22.51 56.0142 22.6905 56.479 23.0516C56.9546 23.4024 57.1925 23.8976 57.1925 24.5372C57.1925 24.7229 57.16 25.311 57.0952 26.3014C57.0844 26.5903 57.0681 26.8895 57.0465 27.199C57.0249 27.4982 57.0141 27.7561 57.0141 27.9727C57.0141 28.1481 57.0411 28.2719 57.0952 28.3441C57.1492 28.406 57.2465 28.437 57.387 28.437C57.4951 28.437 57.6357 28.4164 57.8086 28.3751L57.9707 28.4989L57.7762 29.5822C57.4303 29.7988 57.0357 29.9278 56.5925 29.9691C56.2682 29.9381 55.998 29.8298 55.7818 29.6441C55.5656 29.448 55.4197 29.1798 55.344 28.8394H55.2305C54.69 29.3861 54.1333 29.7679 53.5604 29.9845C52.7821 29.9742 52.1714 29.7782 51.7282 29.3965C51.285 29.0147 51.0634 28.4937 51.0634 27.8335C51.0634 27.3176 51.1985 26.9153 51.4688 26.6264C51.7498 26.3272 52.1714 26.126 52.7335 26.0228L55.2143 25.5741V24.9396C55.2143 24.269 54.8684 23.9337 54.1766 23.9337C53.8415 23.9337 53.4848 24.0059 53.1064 24.1503C52.7389 24.2948 52.3227 24.5217 51.8579 24.8312L51.6958 24.7384L51.4526 23.3766C51.9174 23.098 52.4146 22.8865 52.9443 22.7421C53.474 22.5873 54.0036 22.51 54.5333 22.51ZM53.4794 26.9668C53.3064 27.0081 53.1767 27.0803 53.0902 27.1835C53.0145 27.2763 52.9767 27.4208 52.9767 27.6168C52.9767 27.885 53.0524 28.0965 53.2037 28.2513C53.3551 28.3957 53.5658 28.4679 53.8361 28.4679C54.2577 28.4679 54.7008 28.2307 55.1657 27.7561L55.1981 26.6109L53.4794 26.9668Z" fill="white"/>
<path d="M61.9019 22.5254C62.6369 22.5254 63.3287 22.6441 63.9773 22.8814L63.6854 24.3979L63.426 24.4753C63.1125 24.2793 62.799 24.1297 62.4856 24.0265C62.1721 23.9234 61.8965 23.8718 61.6586 23.8718C61.3992 23.8718 61.1938 23.9388 61.0425 24.073C60.8912 24.1968 60.8155 24.3515 60.8155 24.5372C60.8155 24.7539 60.9128 24.9293 61.1073 25.0634C61.3127 25.1975 61.6316 25.3471 62.064 25.5122C62.4964 25.6772 62.8531 25.8371 63.1341 25.9919C63.4152 26.1466 63.653 26.3633 63.8476 26.6419C64.053 26.9101 64.1557 27.2454 64.1557 27.6478C64.1557 28.0604 64.0422 28.4473 63.8152 28.8084C63.599 29.1592 63.2639 29.448 62.8099 29.675C62.3559 29.8917 61.7992 30 61.1398 30C60.3615 30 59.5562 29.8452 58.7238 29.5357L58.967 27.9263L59.1778 27.8025C59.5129 28.0707 59.8859 28.2874 60.2966 28.4525C60.7074 28.6072 61.0695 28.6846 61.383 28.6846C61.6749 28.6846 61.9019 28.6175 62.064 28.4834C62.2261 28.339 62.3072 28.1688 62.3072 27.9727C62.3072 27.7561 62.2045 27.5807 61.9991 27.4466C61.8046 27.3125 61.4911 27.1629 61.0587 26.9978C60.6155 26.8121 60.2534 26.647 59.9723 26.5026C59.6913 26.3478 59.4481 26.1312 59.2427 25.8526C59.0481 25.5741 58.9508 25.2284 58.9508 24.8158C58.9508 24.1452 59.2157 23.5984 59.7453 23.1754C60.275 22.7421 60.9938 22.5254 61.9019 22.5254Z" fill="white"/>
<path d="M68.5625 22.51C69.3949 22.51 70.0435 22.6905 70.5083 23.0516C70.9839 23.4024 71.2217 23.8976 71.2217 24.5372C71.2217 24.7229 71.1893 25.311 71.1244 26.3014C71.1136 26.5903 71.0974 26.8895 71.0758 27.199C71.0542 27.4982 71.0434 27.7561 71.0434 27.9727C71.0434 28.1481 71.0704 28.2719 71.1244 28.3441C71.1785 28.406 71.2758 28.437 71.4163 28.437C71.5244 28.437 71.6649 28.4164 71.8379 28.3751L72 28.4989L71.8054 29.5822C71.4595 29.7988 71.065 29.9278 70.6218 29.9691C70.2975 29.9381 70.0273 29.8298 69.8111 29.6441C69.5949 29.448 69.4489 29.1798 69.3733 28.8394H69.2598C68.7193 29.3861 68.1626 29.7679 67.5897 29.9845C66.8114 29.9742 66.2007 29.7782 65.7575 29.3965C65.3143 29.0147 65.0927 28.4937 65.0927 27.8335C65.0927 27.3176 65.2278 26.9153 65.498 26.6264C65.7791 26.3272 66.2007 26.126 66.7627 26.0228L69.2436 25.5741V24.9396C69.2436 24.269 68.8976 23.9337 68.2058 23.9337C67.8707 23.9337 67.514 24.0059 67.1357 24.1503C66.7682 24.2948 66.352 24.5217 65.8872 24.8312L65.725 24.7384L65.4818 23.3766C65.9466 23.098 66.4439 22.8865 66.9735 22.7421C67.5032 22.5873 68.0329 22.51 68.5625 22.51ZM67.5086 26.9668C67.3357 27.0081 67.2059 27.0803 67.1195 27.1835C67.0438 27.2763 67.006 27.4208 67.006 27.6168C67.006 27.885 67.0816 28.0965 67.233 28.2513C67.3843 28.3957 67.5951 28.4679 67.8653 28.4679C68.2869 28.4679 68.7301 28.2307 69.1949 27.7561L69.2273 26.6109L67.5086 26.9668Z" fill="white"/>
</svg>
