<svg width="180" height="70" viewBox="0 0 85 36" fill="none" xmlns="http://www.w3.org/2000/svg">
<path d="M39.4266 2.66515L39.6334 2.59575L40.4446 0H44.0755L44.8867 2.59575L45.0935 2.66515C45.4209 2.77503 45.7394 2.90341 46.0478 3.04902L46.2447 3.14202L48.7108 1.86268L51.2784 4.35348L49.9596 6.74599L50.0554 6.93702C50.2055 7.23616 50.3379 7.54517 50.4511 7.86281L50.5227 8.06346L53.1983 8.85038V12.3729L50.5227 13.1598L50.4511 13.3605C50.3379 13.6781 50.2055 13.9872 50.0555 14.2863L49.9596 14.4773L51.2784 16.8698L48.7108 19.3606L46.2447 18.0813L46.0478 18.1743C45.7395 18.3199 45.4209 18.4483 45.0935 18.5581L44.8867 18.6275L44.0755 21.2233H40.4446L39.6334 18.6275L39.4266 18.5581C39.0992 18.4483 38.7806 18.3199 38.4723 18.1743L38.2754 18.0813L35.8092 19.3606L33.2418 16.8698L34.5605 14.4773L34.4646 14.2863C34.3145 13.9872 34.1822 13.6781 34.0689 13.3605L33.9974 13.1598L31.3218 12.3729V8.85038L33.9974 8.06346L34.0689 7.86281C34.1822 7.54517 34.3145 7.23616 34.4646 6.93702L34.5605 6.74599L33.2418 4.35348L35.8092 1.86268L38.2754 3.14202L38.4723 3.04902C38.7807 2.90341 39.0992 2.77503 39.4266 2.66515ZM42.26 11.8298C42.9535 11.8298 43.5157 11.2844 43.5157 10.6116C43.5157 9.93887 42.9535 9.39349 42.26 9.39349C41.5666 9.39349 41.0044 9.93887 41.0044 10.6116C41.0044 11.2844 41.5666 11.8298 42.26 11.8298Z" fill="black"/>
<path d="M2.48846 32.0259L2.60331 35.8143H0L0.133994 32.2488L0 23.855H2.64159L2.48846 32.0259Z" fill="black"/>
<path d="M10.6824 30.4289C10.6952 29.9956 10.5931 29.6613 10.3762 29.4261C10.172 29.1785 9.87208 29.0547 9.47648 29.0547C8.90222 29.0547 8.28968 29.3209 7.63885 29.8532V32.0074L7.7537 35.8143H5.20782L5.34181 32.2488L5.2461 27.3462L7.65799 27.1419V28.4047H7.79199C8.49386 27.7857 9.25954 27.34 10.089 27.0676C11.0589 27.0676 11.799 27.2843 12.3095 27.7176C12.8199 28.1385 13.0624 28.7514 13.0369 29.5561L12.9795 32.0259L13.0943 35.8143H10.5293L10.6824 30.4289Z" fill="black"/>
<path d="M22.7667 32.0074L22.8241 33.5673C22.8241 33.7777 22.8497 33.9263 22.9007 34.013C22.9645 34.0873 23.073 34.1244 23.2261 34.1244C23.3665 34.1244 23.5388 34.0996 23.7429 34.0501L23.9152 34.1987L23.7047 35.4986C23.2708 35.7586 22.7986 35.9133 22.2882 35.9629C21.8926 35.9257 21.5608 35.7957 21.2928 35.5729C21.0248 35.35 20.8397 35.0467 20.7377 34.6629H20.5845C19.9592 35.22 19.3211 35.6472 18.6703 35.9443C17.4197 35.9443 16.4498 35.5605 15.7607 34.7929C15.0716 34.013 14.7271 32.9359 14.7271 31.5617C14.7271 30.1008 15.1227 28.9804 15.9139 28.2004C16.7051 27.4205 17.8025 27.0305 19.2063 27.0305C19.5764 27.0305 19.9847 27.0676 20.4314 27.1419L20.3931 22.9636L22.9198 22.7779L22.7667 32.0074ZM19.034 28.7018C17.7579 28.7018 17.1198 29.488 17.1198 31.0603C17.1198 32.0383 17.273 32.7749 17.5792 33.2702C17.8855 33.7654 18.3321 34.013 18.9192 34.013C19.4807 34.013 19.9975 33.7592 20.4697 33.2516L20.5079 32.2302L20.4505 29.0361C19.9528 28.8133 19.4807 28.7018 19.034 28.7018Z" fill="black"/>
<path d="M33.9144 34.1987L33.6847 35.4986C33.2125 35.7957 32.7276 35.9505 32.2299 35.9629C31.8598 35.901 31.5535 35.7586 31.3111 35.5357C31.0686 35.3129 30.8836 34.991 30.7559 34.5701H30.5837C29.8563 35.2634 29.1033 35.7153 28.3249 35.9257C27.355 35.9257 26.6149 35.7153 26.1044 35.2943C25.6067 34.861 25.3643 34.242 25.377 33.4373L25.4153 31.246L25.3196 27.3462L27.7889 27.1419L27.7315 32.6202C27.7187 33.0535 27.8081 33.3816 27.9995 33.6044C28.1909 33.8273 28.478 33.9387 28.8609 33.9387C29.4224 33.9387 29.9775 33.6973 30.5262 33.2144V27.3462L32.9573 27.1419L32.785 33.5673C32.785 33.7654 32.8169 33.9077 32.8807 33.9944C32.9573 34.0811 33.0721 34.1244 33.2253 34.1244C33.3656 34.1244 33.5379 34.0996 33.7421 34.0501L33.9144 34.1987Z" fill="black"/>
<path d="M38.4024 27.0305C39.2702 27.0305 40.0869 27.1729 40.8526 27.4576L40.508 29.2775L40.2018 29.3704C39.8317 29.1352 39.4616 28.9556 39.0915 28.8318C38.7215 28.708 38.396 28.6461 38.1153 28.6461C37.809 28.6461 37.5666 28.7266 37.3879 28.8875C37.2092 29.0361 37.1199 29.2218 37.1199 29.4447C37.1199 29.7046 37.2348 29.9151 37.4645 30.0761C37.7069 30.237 38.0834 30.4165 38.5938 30.6146C39.1043 30.8127 39.5254 31.0046 39.8572 31.1903C40.189 31.376 40.4698 31.636 40.6995 31.9702C40.9419 32.2921 41.0632 32.6945 41.0632 33.1773C41.0632 33.6725 40.9292 34.1368 40.6612 34.5701C40.4059 34.991 40.0103 35.3377 39.4744 35.61C38.9384 35.87 38.2812 36 37.5027 36C36.5839 36 35.6332 35.8143 34.6506 35.4429L34.9377 33.5116L35.1866 33.363C35.5822 33.6849 36.0224 33.9449 36.5074 34.143C36.9923 34.3287 37.4198 34.4215 37.7899 34.4215C38.1344 34.4215 38.4024 34.341 38.5938 34.1801C38.7853 34.0068 38.881 33.8025 38.881 33.5673C38.881 33.3073 38.7597 33.0968 38.5173 32.9359C38.2876 32.7749 37.9175 32.5954 37.407 32.3973C36.8838 32.1745 36.4563 31.9764 36.1245 31.8031C35.7927 31.6174 35.5056 31.3574 35.2631 31.0231C35.0334 30.6889 34.9186 30.2741 34.9186 29.7789C34.9186 28.9742 35.2312 28.3181 35.8565 27.8105C36.4818 27.2905 37.3305 27.0305 38.4024 27.0305Z" fill="black"/>
<path d="M46.3615 33.9944C46.7698 33.9944 47.1973 33.8892 47.644 33.6787L47.8545 33.8644L47.6057 35.3315C46.9548 35.6534 46.2913 35.8514 45.6149 35.9257C43.8921 35.7524 43.0307 34.9353 43.0307 33.4744L43.1264 31.9331L43.1073 28.739H41.9205L41.8248 28.609L41.9588 27.2534H43.0882V25.8234L45.4044 25.0992L45.5766 25.2478L45.5192 27.2534H47.7971L47.8737 27.3833L47.7588 28.739H45.4809L45.3661 32.8988C45.3661 33.2949 45.4426 33.5797 45.5958 33.753C45.7489 33.9139 46.0041 33.9944 46.3615 33.9944Z" fill="black"/>
<path d="M54.1501 27.1605C54.265 27.1605 54.4245 27.1729 54.6287 27.1976V29.4818L54.3607 29.5746C54.1438 29.488 53.9077 29.4447 53.6525 29.4447C52.9123 29.4447 52.2423 29.9089 51.6425 30.8374V32.0074L51.7765 35.8143H49.2307L49.3838 32.2488L49.2689 27.3462L51.6808 27.1419L51.6617 28.8318H51.8148C52.4401 27.7176 53.2186 27.1605 54.1501 27.1605Z" fill="black"/>
<path d="M56.0578 32.2488L55.9621 27.3462L58.4697 27.1419L58.3548 32.0074L58.4697 35.8143H55.9238L56.0578 32.2488ZM57.2637 22.945C57.6593 22.945 57.9656 23.0564 58.1825 23.2793C58.4122 23.5021 58.5271 23.8116 58.5271 24.2078C58.5271 24.6287 58.4058 24.963 58.1634 25.2106C57.9209 25.4582 57.5891 25.582 57.168 25.582C56.7469 25.582 56.4215 25.4706 56.1918 25.2478C55.9748 25.0249 55.8663 24.7092 55.8663 24.3007C55.8663 23.8921 55.9876 23.564 56.23 23.3164C56.4853 23.0688 56.8298 22.945 57.2637 22.945Z" fill="black"/>
<path d="M64.3796 27.0119C65.3622 27.0119 66.1279 27.2286 66.6766 27.6619C67.2381 28.0828 67.5189 28.6771 67.5189 29.4447C67.5189 29.6675 67.4806 30.3732 67.404 31.5617C67.3913 31.9083 67.3721 32.2674 67.3466 32.6388C67.3211 32.9978 67.3083 33.3073 67.3083 33.5673C67.3083 33.7777 67.3402 33.9263 67.404 34.013C67.4678 34.0873 67.5827 34.1244 67.7486 34.1244C67.8762 34.1244 68.0421 34.0996 68.2463 34.0501L68.4377 34.1987L68.208 35.4986C67.7996 35.7586 67.3338 35.9133 66.8106 35.9629C66.4278 35.9257 66.1087 35.7957 65.8535 35.5729C65.5983 35.3377 65.426 35.0158 65.3367 34.6072H65.2027C64.5646 35.2634 63.9074 35.7214 63.2311 35.9814C62.3123 35.9691 61.5912 35.7338 61.068 35.2758C60.5448 34.8177 60.2832 34.1925 60.2832 33.4002C60.2832 32.7811 60.4427 32.2983 60.7618 31.9517C61.0936 31.5926 61.5912 31.3512 62.2548 31.2274L65.1836 30.6889V29.9275C65.1836 29.1228 64.7752 28.7204 63.9585 28.7204C63.5629 28.7204 63.1417 28.8071 62.6951 28.9804C62.2612 29.1537 61.7699 29.4261 61.2212 29.7975L61.0297 29.6861L60.7426 28.0519C61.2914 27.7176 61.8784 27.4638 62.5037 27.2905C63.129 27.1048 63.7543 27.0119 64.3796 27.0119ZM63.1354 32.3602C62.9312 32.4097 62.778 32.4964 62.676 32.6202C62.5866 32.7316 62.542 32.9049 62.542 33.1402C62.542 33.462 62.6313 33.7158 62.8099 33.9016C62.9886 34.0749 63.2375 34.1615 63.5565 34.1615C64.0542 34.1615 64.5774 33.8768 65.1261 33.3073L65.1644 31.9331L63.1354 32.3602Z" fill="black"/>
<path d="M73.0786 27.0305C73.9464 27.0305 74.7631 27.1729 75.5288 27.4576L75.1842 29.2775L74.8779 29.3704C74.5079 29.1352 74.1378 28.9556 73.7677 28.8318C73.3976 28.708 73.0722 28.6461 72.7915 28.6461C72.4852 28.6461 72.2427 28.7266 72.064 28.8875C71.8854 29.0361 71.7961 29.2218 71.7961 29.4447C71.7961 29.7046 71.9109 29.9151 72.1406 30.0761C72.3831 30.237 72.7595 30.4165 73.27 30.6146C73.7804 30.8127 74.2016 31.0046 74.5334 31.1903C74.8652 31.376 75.1459 31.636 75.3756 31.9702C75.6181 32.2921 75.7393 32.6945 75.7393 33.1773C75.7393 33.6725 75.6053 34.1368 75.3373 34.5701C75.0821 34.991 74.6865 35.3377 74.1505 35.61C73.6146 35.87 72.9573 36 72.1789 36C71.2601 36 70.3094 35.8143 69.3268 35.4429L69.6139 33.5116L69.8627 33.363C70.2583 33.6849 70.6986 33.9449 71.1835 34.143C71.6685 34.3287 72.096 34.4215 72.466 34.4215C72.8106 34.4215 73.0786 34.341 73.27 34.1801C73.4614 34.0068 73.5571 33.8025 73.5571 33.5673C73.5571 33.3073 73.4359 33.0968 73.1934 32.9359C72.9637 32.7749 72.5936 32.5954 72.0832 32.3973C71.56 32.1745 71.1325 31.9764 70.8007 31.8031C70.4689 31.6174 70.1818 31.3574 69.9393 31.0231C69.7096 30.6889 69.5947 30.2741 69.5947 29.7789C69.5947 28.9742 69.9074 28.3181 70.5327 27.8105C71.158 27.2905 72.0066 27.0305 73.0786 27.0305Z" fill="black"/>
<path d="M80.9419 27.0119C81.9245 27.0119 82.6902 27.2286 83.2389 27.6619C83.8004 28.0828 84.0812 28.6771 84.0812 29.4447C84.0812 29.6675 84.0429 30.3732 83.9663 31.5617C83.9536 31.9083 83.9344 32.2674 83.9089 32.6388C83.8834 32.9978 83.8706 33.3073 83.8706 33.5673C83.8706 33.7777 83.9025 33.9263 83.9663 34.013C84.0301 34.0873 84.145 34.1244 84.3109 34.1244C84.4385 34.1244 84.6044 34.0996 84.8086 34.0501L85 34.1987L84.7703 35.4986C84.3619 35.7586 83.8961 35.9133 83.3729 35.9629C82.9901 35.9257 82.6711 35.7957 82.4158 35.5729C82.1606 35.3377 81.9883 35.0158 81.899 34.6072H81.765C81.1269 35.2634 80.4697 35.7214 79.7934 35.9814C78.8746 35.9691 78.1535 35.7338 77.6303 35.2758C77.1071 34.8177 76.8455 34.1925 76.8455 33.4002C76.8455 32.7811 77.005 32.2983 77.3241 31.9517C77.6559 31.5926 78.1535 31.3512 78.8171 31.2274L81.7459 30.6889V29.9275C81.7459 29.1228 81.3375 28.7204 80.5208 28.7204C80.1252 28.7204 79.704 28.8071 79.2574 28.9804C78.8235 29.1537 78.3322 29.4261 77.7835 29.7975L77.592 29.6861L77.3049 28.0519C77.8537 27.7176 78.4407 27.4638 79.066 27.2905C79.6913 27.1048 80.3166 27.0119 80.9419 27.0119ZM79.6977 32.3602C79.4935 32.4097 79.3403 32.4964 79.2383 32.6202C79.1489 32.7316 79.1043 32.9049 79.1043 33.1402C79.1043 33.462 79.1936 33.7158 79.3723 33.9016C79.5509 34.0749 79.7998 34.1615 80.1188 34.1615C80.6165 34.1615 81.1397 33.8768 81.6884 33.3073L81.7267 31.9331L79.6977 32.3602Z" fill="black"/>
</svg>
